<svg xmlns="http://www.w3.org/2000/svg" viewBox="0 0 762 762" fill="none" shape-rendering="auto"><metadata xmlns:rdf="http://www.w3.org/1999/02/22-rdf-syntax-ns#" xmlns:xsi="http://www.w3.org/2001/XMLSchema-instance" xmlns:dc="http://purl.org/dc/elements/1.1/" xmlns:dcterms="http://purl.org/dc/terms/"><rdf:RDF><rdf:Description><dc:title>Adventurer</dc:title><dc:creator>Lisa Wischofsky</dc:creator><dc:source xsi:type="dcterms:URI">https://www.figma.com/community/file/1184595184137881796</dc:source><dcterms:license xsi:type="dcterms:URI">https://creativecommons.org/licenses/by/4.0/</dcterms:license><dc:rights>Remix of „Adventurer” (https://www.figma.com/community/file/1184595184137881796) by „Lisa Wischofsky”, licensed under „CC BY 4.0” (https://creativecommons.org/licenses/by/4.0/)</dc:rights></rdf:Description></rdf:RDF></metadata><mask id="viewboxMask"><rect width="762" height="762" rx="0" ry="0" x="0" y="0" fill="#fff" /></mask><g mask="url(#viewboxMask)"><rect fill="#1a1a2e" width="762" height="762" x="0" y="0" /><path d="M396 164.8a224.8 224.8 0 0 1 104.8 42.4c6.2 4.9 12.5 9.4 18 15a225.4 225.4 0 0 1 71.8 149 58.5 58.5 0 0 1 50.9 42.2 71 71 0 0 1-27.6 76.5c-11 7.7-24.5 12-38 11.7-5 0-10-1.6-15-1.8-1.9 2.2-3.3 4.9-4.8 7.3A223.3 223.3 0 0 1 389 609.8c-11 .7-21.9 2-33 .7a223.7 223.7 0 0 1-178.8-342.3A223.4 223.4 0 0 1 352 163.5c14.6-1.4 29.4-.3 44 1.3Z" fill="#000"/><path fill-rule="evenodd" clip-rule="evenodd" d="M498.8 213.2A216 216 0 0 0 363 169c-13-.2-26.2 1.6-39 4a218 218 0 0 0-113.6 365.5 218.5 218.5 0 0 0 260.4 40.2c35-18.8 64.2-47.3 84.4-81.5l-3-1.6c-2.8-1.4-5.7-3-8-5-2.2-2-.3-5.8 2.7-4.7 1.5.7 3 1.6 4.4 2.4a55 55 0 0 0 59.6-3.6 64.5 64.5 0 0 0 25-69.8 53.1 53.1 0 0 0-24-31 52.6 52.6 0 0 0-47-2.8c-1.6.8-3.4 1.5-5 1.3-2.5-.2-2.8-4.2-.6-5.2 8-4 16.5-5.6 25.4-6.4a217 217 0 0 0-72-146.4c-4.4-4-8.7-8.1-13.9-11.3Zm107.6 196.2c2-1.2 1.3-5.1-1.4-5-2 0-4.2.8-6.2 1.6l-1.4.4a95.1 95.1 0 0 0-25.5 12.4c-2.2 2-2.2 4.4.1 6.2a92 92 0 0 0 5.2 2.8 36 36 0 0 1 13 9.2c-.2 1.9-2 3.4-3.4 4.5l-.2.2c-3.9 3-8.8 5-13.6 7-2.5 1-4.9 2-7.1 3.1-1.7.8-2.6 2.2-1.6 3.9 1 2 3.2 1.1 5 .5l.6-.2 5.4-2.3c5.4-2.3 11-4.5 15.4-8 2.7-2.1 5.1-5.1 5.4-8.7-.5-3.4-2.7-5.7-5.3-7.8a83 83 0 0 0-11.6-7.2l-1.1-.6c5.4-3 10.8-5.6 16.6-7.7l5-1.7a52 52 0 0 0 6.7-2.6Z" fill="#ecad80"/><g transform="translate(-161 -83)"><path d="M559 444.5c11.4-.7 22.5 0 33.2 4.3a45.7 45.7 0 0 1 26.2 23.8c1.4 3.3 3.1 7.5 2.2 11.1-3 3.2-8.5 1-12.5 1-12.7-.6-25.5-.4-38 .6-14 1-28.5 1.7-42 5.3a188 188 0 0 0-25.2 7.4c-3.7 1.2-6.8 3-11 2.2 1.4-16.8 13-31.4 26.4-41a87.3 87.3 0 0 1 40.7-14.7Z" fill="#000"/><path d="M573 450.2a54 54 0 0 1 31.9 13c4.9 4.5 8.3 10.3 10.1 16.7-16.7-2.2-34.3-.9-51 0-7.7 1-15.4 1-23 2.3 1.2-9.2 2.2-18.4 1-27.7 10-3.6 20.3-5.5 31-4.3Z" fill="#fff"/><path d="M369.2 468.7a79.8 79.8 0 0 1 50.9 8.2c8.7 4.8 16.9 12 20.6 21.5.7 2 1.6 4.5-.7 6-2.7 0-5.4-.7-8-1.1-9.4-1.8-19.4-2.1-29-2.6-10.7-.4-21.3.5-32 .6-12.5.9-24.8 3-37 5-2.5.6-3.2-2.4-3.2-4.2.2-12.4 9.1-22.3 19.8-27.5 6-2.5 12.2-4.6 18.6-6Z" fill="#000"/><path d="M516.9 467.3c-.6 7-.6 13.5 0 20.4a278 278 0 0 0-18.1 6.1 58 58 0 0 1 18-26.5ZM374.6 473.4c9.9-.6 19.7 0 29.2 2.9a50.8 50.8 0 0 1 30.6 21.5c-20.2-3.5-40-2.6-60.3-2.4.8-7.4.6-14.7.5-22ZM350.5 480.6c-.3 5.8-.3 11.6 0 17.5-4.7.3-9.4.7-14 1.7 1.6-7 5.1-12.1 10.6-16.6l3.4-2.6Z" fill="#fff"/></g><g transform="translate(-161 -83)"><path d="M452 395.9c.7 4.6-1.5 9.3-4.2 13a43.8 43.8 0 0 1-12.8 11c-7.7 4.4-16 7.8-24.2 10.9a423.5 423.5 0 0 1-73.5 19.5c-3.4.5-7 1.5-10.4 1-2-.8-2-2.7-1.1-4.4 2.3-1.8 5.5-2.8 8.2-4 36-14.6 71.9-29.4 107.8-44.1 3.3-1.3 6.6-3.4 10.2-3ZM479 396l148 22.8c2.6.4 5.3.5 7.8 1.4 2.4 1.1 1.7 5-1 5.2-9.6 1-19.1 1.8-28.8 2-15.4 0-30.6.3-46-1.2-20.9-1.6-42.2-4.6-62.2-11-7-2.5-15-5.5-20.3-10.7-1.8-2-4-4.3-3.2-7.1 1.2-2.2 3.6-1.6 5.7-1.4Z" fill="#000"/></g><g transform="translate(-161 -83)"><path d="M526 559.6c18 0 37.2 2.1 54 9-52.2 7.3-107.2 15.2-159 22.3 8-7 17.7-12.3 27.4-16.5A79.3 79.3 0 0 1 488 567c1 .1 1.9 0 2.7-.4 10.2-5.9 23.7-6.6 35.3-7Z" fill="#D31E1E"/><path d="M580 568.7c2.4 1 2 3.4 1.4 5.4a92 92 0 0 1-28.4 34 96.5 96.5 0 0 1-60 17.5c-26.8-1-53-12-73.4-29.3-.4-2.4-.5-3.7 1.4-5.4 51.8-7.1 106.8-15 159-22.2Z" fill="#000"/><path d="M581.4 574.1c-1.1 4.6-1.9 9.2-3.7 13.7-5.3 13.9-16 25.4-28.4 33.5a103.3 103.3 0 0 1-45.3 16 96 96 0 0 1-58-11.3 60.6 60.6 0 0 1-26.4-29.7 122.1 122.1 0 0 0 73.4 29.3 92 92 0 0 0 88.4-51.5Z" fill="#D31E1E"/><path d="M573.9 575.5c-8.2 15-21 27.5-36.4 35a89.2 89.2 0 0 1-40.5 9.2c-24.7.2-49-9-68.6-23.9 48-6.6 97.8-13.8 145.5-20.3Z" fill="#fff"/></g><g transform="translate(-161 -83)"></g><g transform="translate(-161 -83)"><path fill-rule="evenodd" clip-rule="evenodd" d="M589 446c12.8.8 25.7 1.9 37.4 7.6 1.1.5 2.2 1.2 3.3 1.9 1.4.9 2.8 1.8 4.3 2.3 2.3.4 4.7.4 7 .5 2.7.1 5.4.2 8 .7 2.1.8 2.3 2.8 2.4 4.8v1c0 2.2 0 4.2-2.4 5.4-2.2.2-4.4.2-6.6.2h-3.2a92.2 92.2 0 0 1-11.5 52.3 82.3 82.3 0 0 1-43.9 37.2 78.7 78.7 0 0 1-77.4-14.3 88.7 88.7 0 0 1-28.7-44.5c-1-3-1.5-6-2-9-.6-3.2-1.2-6.4-2.3-9.5-2-5.5-10.5-8.8-14.5-3.7-3.3 3.7-3.2 8-3.2 12.6v3.5a77.3 77.3 0 0 1-41.3 65.4 65 65 0 0 1-46.2 5.3 62 62 0 0 1-30.7-19.2 70.8 70.8 0 0 1-16.8-45.2l-1.5-.2c-1.4-.2-2.7-.3-3.4-2v-.4c-.3-2.1-.9-5.5 1.4-6.5 1-.5 2-1 3-1.3 2.2-1 4.4-1.8 6.2-3.5a88.9 88.9 0 0 1 37.6-17.3 152 152 0 0 1 69-1c5.8 1.5 12 1.7 17.7-.4 7.1-2.3 14.9-3.5 22.3-2.5 5.8.6 11.9.4 17.4-1.9 12.1-4.6 24-9.1 36.6-12.3 20.3-5.1 41-7.2 62-6Zm-25 13c17.6-1 36-.8 53.3 3.7a19 19 0 0 1 14.2 15.5c1.3 7.9.3 15.5-1.3 23.3a80.6 80.6 0 0 1-24.7 39 73 73 0 0 1-81.6 9.6 80 80 0 0 1-33.2-32.9 60.6 60.6 0 0 1-6.4-35.5 98 98 0 0 1 20.2-10.3A214.9 214.9 0 0 1 564 459Zm-134.8 19.8c-11.4-2.2-23-2.7-34.7-2-16 1.2-31.3 3.7-46.4 9.4-5.2 2-10.6 4.5-15 8-4.1 2.8-5.5 9.1-5.7 13.8.3 8.9 3.6 17.9 8 25.5a56.4 56.4 0 0 0 66.7 25.6 68 68 0 0 0 46.6-62.1 47 47 0 0 0-1.4-10c-.3-1.6-1.8-2.5-3.1-3.3l-.6-.3a57.8 57.8 0 0 0-14.4-4.6Z" fill="#000"/></g><g transform="translate(-161 -83)"><path d="M710 157.1c10.3.5 20.8.8 31 3a89.8 89.8 0 0 1 42.4 25.6 90.3 90.3 0 0 1 15.5 24.4c7 17.1 11.5 34.8 15 52.9 1.8 9.9 3 20 3.3 30 0 5.5.1 11.9-2.1 17a55 55 0 0 1-18.7 20.4 124 124 0 0 1-44.9 20.7c13.1 33.3 16.9 70 12 105.4-.6 2-.5 5.3-3.5 5a60 60 0 0 0-34.2 2.8 35 35 0 0 1-14.3 39.2 24.6 24.6 0 0 1-29.7-2.3c-11.6-10.7-11.6-30.5-2.3-42.7 1.3-1.8 4.7-1.7 5.2.7.1 3.6-1.3 6.8-.3 10.6s4.3 7.7 8.6 7.3c5.2-.4 7.5-7.2 6.3-11.6a179 179 0 0 0-38.7-78.1 79.6 79.6 0 0 0-24-18.9c-2.8-1.4-5.8-1.9-7.3-4.9-1-1.5.5-3.9 1-5.4 3.5-9 2.5-19.6-2.9-27.7a64 64 0 0 0-29.6-22.2c-21.2-8.7-45-11.7-67.8-11.8-21.6-.1-43.2 2.4-64.2 7.4-1.3.3-2.6.5-3.9.4-2.6-1-2-4.7-1.2-6.8 4.5-11 12.3-20.8 19.3-30.2a248.7 248.7 0 0 0-31.8 28c-3.1 3.4-6.2 6.3-7.2 11-4.8 1.8-9.9 2-14.8 3.3A199.2 199.2 0 0 0 367 335a97.2 97.2 0 0 0-27.9 25.2c-1 1.8-3.3 2-4.6.3a26.3 26.3 0 0 1-5.6-15.5 50.3 50.3 0 0 1 5.5-23c-7.5-2.9-14.7-5.5-21.4-10a52 52 0 0 1-20.9-20.2c-2.9-5.8-2-13.1-1-19.3a228 228 0 0 1 18.5-54 84.6 84.6 0 0 1 21.8-31.2c6-4.9 13.2-6.7 20.6-8.5 9.3-2.2 19.5-2 29-2 7.7.4 15.4.7 23 1.8 9.6 1.4 21.1 2 29.8 6.7a33 33 0 0 1 15.6 22.7 84.7 84.7 0 0 1 2 30.4c18-4 37-6.3 54.2 2.2a219.4 219.4 0 0 1 106.9-5.6c1.7-12.5 2.3-26.2 6.5-38a43.1 43.1 0 0 1 14.9-19.2c5.2-4.2 11-7.2 17.1-9.8a161.4 161.4 0 0 1 59-10.9Z" fill="#000"/><g fill="#e5d7a3"><path d="M698 163.6c14-.5 27.5-.4 41.2 2.2a70 70 0 0 1 27 13 79.3 79.3 0 0 1 25.4 29.6c6.6 14.8 11 30.7 14.4 46.4 1.6 7 3 14 3.8 21.2.9 9.2 2.4 17.9 1 27-.5 5.1-4.2 9.8-7.4 13.4-7 7.1-15.6 12.8-24.2 17.7-9.7 5-19.2 9.3-30 11.1a187.1 187.1 0 0 0-131.5-109.1c1.7-9.4 2.2-18.8 4.3-28a37.8 37.8 0 0 1 7.5-17.6c4.3-4.8 9-9.1 14.6-12.4a129.4 129.4 0 0 1 53.9-14.5ZM400.5 184.2c9.2 1.5 19.4 1.8 28 5.2a25.8 25.8 0 0 1 13.9 15.4c3.9 11.4 4.2 23 3.4 35-27.3 7.9-52.7 21.4-74.9 39.1-13 11-24.9 22.7-33.6 37.5a84.4 84.4 0 0 1-35.2-20.5 19.8 19.8 0 0 1-5.7-17.9c3-20.8 11.2-41.5 20.3-60.4 5-9.8 10.2-18.9 19-25.9 5.2-4.2 12.9-6 19.3-7.4a171 171 0 0 1 45.5 0Z"/><path d="M582 237.1c39.5 2.1 78 16 108.8 41 23.5 18.9 42 43.6 53.6 71.4a198.4 198.4 0 0 1 13.3 104.9 75 75 0 0 0-38.5 6.2c-.3 3 .8 5.6 1.4 8.4a28 28 0 0 1-2 17.2l-.2.6a24.5 24.5 0 0 1-18.4 14.6 18 18 0 0 1-16.7-7.7 26.5 26.5 0 0 1-4.5-17.6l1.8.2c1.8 2.1 3.3 4 5.8 5.3 5.8 3.5 14 1 17-5a20.3 20.3 0 0 0 1.3-15.4c-5.6-22.6-15-44.5-28.3-63.6-11-15.2-23.1-28.7-40.7-36.2 3.1-8.7 4-18 .5-26.7-5.2-14-18-23.6-31.1-29.8a173.5 173.5 0 0 0-66.1-14.2c-12.6-1-25.5.2-38 1.1-11.1 1.2-22 3-33 5.3 1-3.7 3-6.8 5.2-10a193.1 193.1 0 0 1 26.6-32.4c2.3-2.5.8-4.6-2-5.7-9.5 5.4-19 11.3-27.7 18.1-6 5-11.9 10.1-17.4 15.6-6 6-12 11.4-16.3 18.8-18 2.9-35.4 8.9-52 16.8a142.3 142.3 0 0 0-47.6 34.6c-2.7-6-2.4-12.5-.6-18.7A81 81 0 0 1 353 305c8.2-9.9 17.8-18.2 28-26a210.3 210.3 0 0 1 63-32.3c9.3-2.8 19.2-5 29-5.6 6.8-.1 13.4-.4 20 1.3 4.3 1 8 2.9 12 4.6 24.8-7.7 51.1-11.3 77-9.9Z"/></g></g><g transform="translate(-161 -83)"></g></g></svg>