<svg xmlns="http://www.w3.org/2000/svg" viewBox="0 0 256 256" fill="none" shape-rendering="auto"><metadata xmlns:rdf="http://www.w3.org/1999/02/22-rdf-syntax-ns#" xmlns:xsi="http://www.w3.org/2001/XMLSchema-instance" xmlns:dc="http://purl.org/dc/elements/1.1/" xmlns:dcterms="http://purl.org/dc/terms/"><rdf:RDF><rdf:Description><dc:title>Croodles - Doodle your face</dc:title><dc:creator>vijay verma</dc:creator><dc:source xsi:type="dcterms:URI">https://www.figma.com/community/file/966199982810283152</dc:source><dcterms:license xsi:type="dcterms:URI">https://creativecommons.org/licenses/by/4.0/</dcterms:license><dc:rights>Remix of „Croodles - Doodle your face” (https://www.figma.com/community/file/966199982810283152) by „vijay verma”, licensed under „CC BY 4.0” (https://creativecommons.org/licenses/by/4.0/)</dc:rights></rdf:Description></rdf:RDF></metadata><mask id="viewboxMask"><rect width="256" height="256" rx="0" ry="0" x="0" y="0" fill="#fff" /></mask><g mask="url(#viewboxMask)"><rect fill="#1a1a2e" width="256" height="256" x="0" y="0" /><path d="M175 107.8c.3.4.5.8.4 1.3 1.9 2.3 3.5 5 4.8 8 1.2-.4 2.5-.7 3.9-.6 1.7.2 3.3 1.1 4.4 3 2 3.5 3.4 8 1.8 14.6a7.9 7.9 0 0 1-2.7 4.6 6 6 0 0 1-2.4 1 54 54 0 0 1-1.6 15 55 55 0 0 1-46 38.4c-24 2.2-47.9-4.1-59.6-27a43 43 0 0 1-5.7-17.5c-1.4 0-2.9-.6-4.1-2a15.5 15.5 0 0 1-3-8.3c-.7-5.7.2-9.9 2-12.4 1-1.3 2.2-2.2 3.6-2.6 1.2-.4 2.6-.3 3.8.2a33.1 33.1 0 0 1 4-9l.3-.7c2.9-4.9 8.8-9.4 16.2-13a89.6 89.6 0 0 1 26.3-7.5c19-2.5 40.4.5 53.6 14.5Z" fill="#ffffff"/><g stroke="#000" stroke-width="3" stroke-linecap="round" stroke-linejoin="round"><path d="M78.7 115c-6.1 8.7-10.8 34.3-.6 51 11.6 22.5 35.3 28.9 59.6 26.6a54.7 54.7 0 0 0 45.7-38A56 56 0 0 0 175 109"/><path d="M181.2 118.4c2.6-1.2 5.6-1.7 7.4 1.5 1.9 3.2 3.2 7.3 1.7 13.6-1 4-3.3 4.9-5.3 4.9M73 124.6c-4.2-2-9.1 2.3-7.8 13.4 1 7.8 4 9.5 6.5 9.2"/></g><g transform="translate(113 126)"><path d="M2 2.7c3.5 0 7.7 5.7 8.1 14.8.7 14.7-4.2 19.4 0 27 2.7 5 17.8 4.7 21.9-3.6 3.2-6.5-3-12-6.6-20.7-3.5-8.3-5.7-13.4-2-18.2" stroke="#000" stroke-width="3" stroke-linecap="round" stroke-linejoin="round"/></g><g transform="translate(62 112)"></g><g transform="translate(98 169)"><path d="M34 10c-7.2 0-14-1.2-17-2 1 2.6 6.4 8.3 17 8.3 12 0 16.5-5.5 18.3-8.3-6 1.8-11 2-18.3 2Z" stroke="#000" stroke-width="3" stroke-linecap="round" stroke-linejoin="round"/></g><g transform="translate(-2 4)"><path d="M81 110c11-18.5 70-33.4 96-5.8" stroke="#000" stroke-width="3" stroke-linecap="round" stroke-linejoin="round"/></g><g transform="translate(69 153)"></g><g transform="translate(72 106)"><path d="M33 35.6c-1.8-1.7.5-4.4 2.5-3.4 2.5 1.3 3.4 4.3 1.2 6.5s-7.2.8-7.5-4.5c-.3-5.3 6.5-9.2 10-3 3.3 6.3 2.2 11.9-5.2 11.9-5.1 0-7.3-3.6-7.9-7-1-6.7 2.5-13.6 9.7-12 4.5 1 9.7 4 8.8 13.3-1 9.3-6 10.3-12.3 9.2-7.7-1.3-9.8-8.2-7.3-16M78.5 35.6c-1.9-1.7.4-4.4 2.4-3.4 2.5 1.3 3.4 4.3 1.2 6.5-2.1 2.2-7.1.8-7.5-4.5-.3-5.3 6.5-9.2 10-3 3.3 6.3 2.2 11.9-5.2 11.9-5.1 0-7.3-3.6-7.8-7-1-6.7 2.4-13.6 9.7-12 4.4 1 9.6 4 8.7 13.3-1 9.3-6 10.3-12.3 9.2-7.7-1.3-9.8-8.2-7.3-16M29.8 15.9c3 2.2 8.8 2.6 12 1M72.2 16.8c3.6 1 9.2-.3 11.8-2.8" stroke="#000" stroke-width="3" stroke-linecap="round" stroke-linejoin="round"/></g></g></svg>