<svg xmlns="http://www.w3.org/2000/svg" viewBox="0 0 120 120">
<rect width="120" height="120" rx="24" fill="#1a1a2e"/>
<path d="M24 118 Q24 88 60 88 Q96 88 96 118 Z" fill="#1e293b"/>
<rect x="50" y="92" width="20" height="12" rx="3" fill="#6366f1"/>
<path d="M32 52 Q32 20 60 20 Q88 20 88 52 L88 74 Q88 82 80 82 L40 82 Q32 82 32 74 Z" fill="#334155"/>
<path d="M32 44 L88 44 L88 52 L32 52 Z" fill="#0f172a"/>
<rect x="38" y="45" width="18" height="6" rx="3" fill="#818cf8"><animate attributeName="opacity" values="1;0.5;1" dur="2.4s" repeatCount="indefinite"/></rect>
<rect x="64" y="45" width="18" height="6" rx="3" fill="#818cf8"><animate attributeName="opacity" values="1;0.5;1" dur="2.4s" repeatCount="indefinite"/></rect>
<path d="M60 20 L60 10 M55 12 L65 12" stroke="#818cf8" stroke-width="2.5" stroke-linecap="round"/>
<path d="M42 60 h36 M42 66 h36 M42 72 h20" stroke="#1e293b" stroke-width="2"/>
<path d="M46 30 h28" stroke="#475569" stroke-width="3" stroke-linecap="round"/>
</svg>
