<svg xmlns="http://www.w3.org/2000/svg" viewBox="0 0 120 120">
<rect width="120" height="120" rx="24" fill="#1a1a2e"/>
<path d="M24 118 Q24 88 60 88 Q96 88 96 118 Z" fill="#164e63"/>
<circle cx="60" cy="52" r="30" fill="#0e7490"/>
<path d="M30 52 Q30 20 60 20 Q90 20 90 52 L90 58 Q60 48 30 58 Z" fill="#155e75"/>
<circle cx="45" cy="49" r="8" fill="#0a0a0f"/><circle cx="75" cy="49" r="8" fill="#0a0a0f"/>
<circle cx="45" cy="49" r="4" fill="#67e8f9"><animate attributeName="r" values="4;2.5;4" dur="2s" repeatCount="indefinite"/></circle>
<circle cx="75" cy="49" r="4" fill="#67e8f9"><animate attributeName="r" values="2.5;4;2.5" dur="2s" repeatCount="indefinite"/></circle>
<path d="M45 49 Q60 42 75 49" stroke="#67e8f9" stroke-width="1.5" fill="none" opacity="0.6"/>
<path d="M52 68 Q60 72 68 68" stroke="#083344" stroke-width="2" fill="none"/>
<path d="M54 98 L60 108 L66 98 L60 103 Z" fill="#67e8f9"/>
<text x="60" y="34" font-size="10" fill="#a5f3fc" text-anchor="middle" font-family="monospace">await</text>
</svg>
