<svg xmlns="http://www.w3.org/2000/svg" viewBox="0 0 120 120">
<rect width="120" height="120" rx="24" fill="#1a1a2e"/>
<path d="M24 118 Q24 88 60 88 Q96 88 96 118 Z" fill="#713f12"/>
<circle cx="60" cy="52" r="30" fill="#a16207"/>
<path d="M30 52 Q30 20 60 20 Q90 20 90 52 L90 56 L30 56 Z" fill="#854d0e"/>
<rect x="36" y="44" width="20" height="9" rx="4.5" fill="#0a0a0f"/><rect x="64" y="44" width="20" height="9" rx="4.5" fill="#0a0a0f"/>
<rect x="40" y="46.5" width="12" height="4" rx="2" fill="#fde047"><animate attributeName="opacity" values="1;0.4;1" dur="2.2s" repeatCount="indefinite"/></rect>
<rect x="68" y="46.5" width="12" height="4" rx="2" fill="#fde047"><animate attributeName="opacity" values="1;0.4;1" dur="2.2s" repeatCount="indefinite"/></rect>
<path d="M50 66 Q60 71 70 66" stroke="#713f12" stroke-width="2" fill="none"/>
<rect x="52" y="92" width="16" height="8" rx="2" fill="#fde047"/>
<rect x="57" y="100" width="6" height="14" rx="2" fill="#0a0a0f"/>
<path d="M44 30 h32" stroke="#fde047" stroke-width="2" stroke-linecap="round" opacity="0.7"/>
</svg>
