<svg xmlns="http://www.w3.org/2000/svg" viewBox="0 0 120 120">
<rect width="120" height="120" rx="24" fill="#1a1a2e"/>
<path d="M25 118 Q25 88 60 88 Q95 88 95 118 Z" fill="#052e16"/>
<circle cx="60" cy="52" r="30" fill="#14532d"/>
<path d="M30 52 Q30 20 60 20 Q90 20 90 52 L90 58 L30 58 Z" fill="#166534"/>
<rect x="34" y="42" width="52" height="14" rx="7" fill="#0a0a0f"/>
<rect x="36" y="44" width="48" height="10" rx="5" fill="#22c55e" opacity="0.9"><animate attributeName="opacity" values="0.9;0.5;0.9" dur="1.6s" repeatCount="indefinite"/></rect>
<path d="M40 49 h6 M50 49 h6 M60 49 h6 M70 49 h6" stroke="#052e16" stroke-width="2"/>
<path d="M45 30 L48 22 M75 30 L72 22" stroke="#22c55e" stroke-width="2.5" stroke-linecap="round"/>
<circle cx="48" cy="20" r="2.5" fill="#4ade80"/><circle cx="72" cy="20" r="2.5" fill="#4ade80"/>
<circle cx="60" cy="103" r="8" fill="#0a0a0f"/>
<path d="M56 103 a4 4 0 1 1 8 0 a4 4 0 1 1 -8 0 M63 106 l3 3" stroke="#4ade80" stroke-width="1.8" fill="none"/>
</svg>
